<svg xmlns="http://www.w3.org/2000/svg" width="1284.424" height="386.999" viewBox="0 0 1284.424 386.999">
  <g id="Grupo_1" data-name="Grupo 1" transform="translate(-142 -448.001)">
    <path id="Caminho_1" data-name="Caminho 1" d="M107.337,178.1l-.283-.3a73.178,73.178,0,0,0-34.4-18.1c-23.129-4.833-23.395-9.639-23.395-9.841v-.43c0-3.544,6.712-5.205,10.914-5.9H62.9A42.738,42.738,0,0,1,72.614,145c6.8,4.513,12.351,6.707,16.945,6.707h2.15l4.7-.5.41-.153c14.359-5.332,17.373-15.281,17.373-22.689v-1.29c0-3.736-1.274-7.822-3.9-12.493l-.238-.423-.342-.345c-12.036-12.11-28.365-18.25-48.535-18.25-8.847,0-18.448,2.273-28.535,6.757l-.3.152c-20.32,11.449-30.623,27.1-30.623,46.532v1.29c0,17.213,8.615,31.939,25.606,43.771l.341.21c8.187,4.425,19.613,8.442,33.96,11.937l.174.038c10.939,2.092,11.673,6.076,11.723,7.779-.9,4.374-3.421,9.238-14.063,9.238a56.169,56.169,0,0,1-17.967-3.447c-5.715-4.846-11.674-7.3-17.722-7.3l-5.067.488-.394.137C3.177,218.359,0,228.142,0,235.432A30.608,30.608,0,0,0,2.9,248.08l.2.44.309.372c12.121,14.545,31.414,21.921,57.344,21.921a64.93,64.93,0,0,0,31.375-8.176l.221-.131c19.06-12.252,28.724-28.451,28.724-48.144,0-13.2-4.62-25.4-13.733-36.258" transform="translate(142 448)"/>
    <path id="Caminho_2" data-name="Caminho 2" d="M276.59,130.7l-.128-.336c-10.323-23.379-28.78-35.233-54.857-35.233-9.12,0-19.691,2.056-31.481,6.116v-21.9c0-5.679-.485-9.854-1.483-12.765l-.069-.185c-4.248-10.456-11.931-15.982-22.219-15.982h-1.29A22.071,22.071,0,0,0,156.4,52.4c-9.454,3.884-14.248,12.95-14.248,26.945v162.1c0,6.927.672,11.414,2.113,14.1,4.782,9.843,12.069,14.833,21.659,14.833a24.767,24.767,0,0,0,13.047-3.969l.312-.216c6.909-5.345,10.412-11.212,10.412-17.437V167.494c0-7.256.41-10.307.687-11.538l.685-.858c6.442-8.068,14.392-11.99,24.305-11.99H217.7l5.473.782c7.207,2.35,10.567,6.85,10.567,14.144V243.6a33.8,33.8,0,0,0,1.473,10.588l.134.342c4.765,10.519,12.222,15.852,22.165,15.852h.177l4.9-.49.4-.142c15.117-5.31,18.29-15.048,18.29-22.28V155.884c0-7.152-1.578-15.624-4.69-25.181" transform="translate(142 448)"/>
    <path id="Caminho_3" data-name="Caminho 3" d="M449.053,118.543l-.217-.2c-17.781-15.114-36.64-22.778-56.055-22.778h-7.31c-12.819,0-27.008,4.351-42.172,12.932l-.284.179c-26.975,18.824-40.653,43.821-40.653,74.3,0,20.081,6.478,38.472,19.256,54.665l.1.125c18.752,21.644,41.5,32.619,67.62,32.619,19.33,0,37.406-6.169,53.727-18.336l.16-.127c22.529-18.9,33.952-42.239,33.952-69.376,0-23.73-9.463-45.263-28.127-64m-59.564,104.3c-6.262-.536-11.3-1.582-14.991-3.112-16.549-8.446-24.593-20.468-24.593-36.753v-.86c0-4.888,1.322-10.566,3.928-16.881,8.972-14.888,20.166-22.124,34.218-22.124h2.58a37.346,37.346,0,0,1,19.955,5.854c12.53,8.892,18.62,19.314,18.62,31.861v3.87a36.236,36.236,0,0,1-4.68,17.131c-8.806,14.093-20.268,20.968-35.037,21.014" transform="translate(142 448)"/>
    <path id="Caminho_4" data-name="Caminho 4" d="M651.421,145.8l-.125-.342c-14.093-33.108-38.922-49.9-73.8-49.9a84.782,84.782,0,0,0-37.263,8.956c-5.071-5.946-11.183-8.956-18.2-8.956l-4.264.451-.679.144c-15.562,4.914-18.829,14.848-18.829,22.317V286.6c0,13.994,4.794,23.06,14.189,26.92a22.163,22.163,0,0,0,8.723,2.011h1.29c10.288,0,17.971-5.526,22.219-15.98l.069-.187c1-2.91,1.483-7.086,1.483-12.764V261.934c11.483,5.61,22.123,8.448,31.7,8.448h6.879c15.767,0,31-6.066,45.287-18.031l.2-.179c17.832-17.388,26.875-39.8,26.875-66.618v-5.16c0-10.625-1.935-22.263-5.75-34.592m-37.6,38.892A40.7,40.7,0,0,1,609.687,202c-7.6,13.958-17.368,20.774-29.867,20.836-5.342-.526-9.606-1.542-12.678-3.022-14.357-8.418-21.337-20.47-21.337-36.843v-.86a51.216,51.216,0,0,1,3.469-17.054c7.7-14.771,17.252-21.952,29.2-21.952h2.257a28.608,28.608,0,0,1,16.971,5.72c10.848,8.886,16.122,19.354,16.122,32Z" transform="translate(142 448)"/>
    <path id="Caminho_5" data-name="Caminho 5" d="M810.286,113.776l-.2-.18C795.8,101.631,780.564,95.565,764.8,95.565h-6.88c-9.569,0-20.211,2.84-31.7,8.449V79.349c0-5.679-.485-9.854-1.483-12.765l-.07-.186c-4.248-10.455-11.931-15.981-22.219-15.981h-1.29A22.071,22.071,0,0,0,692.5,52.4c-9.454,3.884-14.248,12.95-14.248,26.945V247.471c0,7.467,3.266,17.4,18.828,22.316l4.55.574.393.022c7.023,0,13.135-3.01,18.2-8.955a84.81,84.81,0,0,0,37.264,8.955c34.873,0,59.7-16.787,73.794-49.894l.126-.343c3.815-12.33,5.749-23.969,5.749-34.592v-5.16c0-26.817-9.041-49.23-26.874-66.618M759.809,222.839c-5.343-.527-9.606-1.542-12.678-3.021-14.356-8.418-21.336-20.471-21.336-36.844v-.86a51.236,51.236,0,0,1,3.468-17.054c7.7-14.771,17.253-21.951,29.2-21.951h2.257a28.6,28.6,0,0,1,16.971,5.719c10.848,8.886,16.122,19.354,16.122,32v3.87A40.685,40.685,0,0,1,789.676,202c-7.6,13.959-17.367,20.775-29.867,20.836" transform="translate(142 448)"/>
    <path id="Caminho_6" data-name="Caminho 6" d="M1006.287,119.117a26.316,26.316,0,0,0-3-10.927l-.137-.233c-5.263-8.223-12.494-12.392-21.49-12.392l-3.515.465-.338.066a26.938,26.938,0,0,0-15.328,10.34l-.316.418L934.433,181.39c-4.238,12.371-7,20.078-8.783,24.865-9.882-27.973-20.109-56.081-30.447-83.681C890.745,104.937,882.366,96,870.3,96h-2.581l-4.688.5-.4.146c-11.378,4.145-17.392,12.142-17.392,23.127v2.09l.076.363c1.19,5.663,15.724,46.053,44.434,123.479l11.133,27.116c-9.779,27.185-10.925,33.9-10.925,36.574l.007.217a26.218,26.218,0,0,0,3,10.931l.137.231c5.259,8.222,12.49,12.391,21.488,12.391h.253l3.261-.466.338-.065a26.944,26.944,0,0,0,15.326-10.339l.326-.428L991.86,162.768c12.793-32.855,14.434-40.468,14.434-43.431Z" transform="translate(142 448)"/>
    <path id="Caminho_7" data-name="Caminho 7" d="M1044.5,176.32a28.871,28.871,0,0,0,28.743,26.078h1.909a26.008,26.008,0,0,0,23.271-14.478,64.127,64.127,0,0,1,114.915,0,26.021,26.021,0,0,0,23.313,14.492h6.142a25.992,25.992,0,0,0,23.784-36.281c-2.536-5.843-4.631-9.975-5.044-10.716a121.953,121.953,0,0,0-105.695-60.977c-1.724,0-3.463,0-5.187.128,0,0-17.842-.4-40.87,8.821-1.525.6-3.093,1.254-4.646,1.952,2.366-22.43,20.606-40.442,43.834-43.634a54.971,54.971,0,0,1,7.353-.5,52.957,52.957,0,0,1,29.456,8.849A26.66,26.66,0,0,0,1206.226,74a32.509,32.509,0,0,0,18.8-11.272,30.624,30.624,0,0,0-4.831-43.022,29.758,29.758,0,0,0-2.65-1.9A113.624,113.624,0,0,0,1156.264,0q-4.659,0-9.234.37c-57.785,4.6-103.386,52.1-103.386,109.813.114-.028.157,63.614.855,66.136" transform="translate(142 448)" fill="#007bff"/>
    <path id="Caminho_8" data-name="Caminho 8" d="M1084.919,253.357a21.376,21.376,0,1,1-21.375,21.375,21.375,21.375,0,0,1,21.375-21.375m0-35.626a57,57,0,1,0,57,57,57.066,57.066,0,0,0-57-57" transform="translate(142 448)" fill="#007bff"/>
    <path id="Caminho_9" data-name="Caminho 9" d="M1227.423,254.782a21.375,21.375,0,1,1-21.375,21.375,21.374,21.374,0,0,1,21.375-21.375m0-35.626a57,57,0,1,0,57,57,57.065,57.065,0,0,0-57-57" transform="translate(142 448)" fill="#007bff"/>
    <path id="Caminho_10" data-name="Caminho 10" d="M17.151,339.61q6.86,0,10.92,2.905t4.06,9.135v16.1a4.07,4.07,0,0,1-.805,2.66,8.053,8.053,0,0,1-2.065,1.75,19.3,19.3,0,0,1-4.97,1.855,28.7,28.7,0,0,1-6.79.735q-7,0-10.99-2.694a9.04,9.04,0,0,1-3.99-8.016A8.821,8.821,0,0,1,5.5,356.865q2.975-2.482,8.645-3.045l9.52-.979V351.58a4.492,4.492,0,0,0-1.925-4.059,9.875,9.875,0,0,0-5.425-1.26,20.323,20.323,0,0,0-5.32.7,26.625,26.625,0,0,0-4.62,1.68,5.288,5.288,0,0,1-1.26-1.539,4.035,4.035,0,0,1-.56-2.031q0-2.52,2.8-3.71a17.466,17.466,0,0,1,4.585-1.33,32.96,32.96,0,0,1,5.215-.42m.35,28.561a15.612,15.612,0,0,0,3.78-.421,8.79,8.79,0,0,0,2.45-.909V358.86l-6.93.7a9.047,9.047,0,0,0-4.375,1.225,3.361,3.361,0,0,0-1.505,2.976,3.793,3.793,0,0,0,1.61,3.219,8.373,8.373,0,0,0,4.97,1.191" transform="translate(142 448)"/>
    <path id="Caminho_11" data-name="Caminho 11" d="M57.33,357.11H48.721v-25.2a10.755,10.755,0,0,1,1.646-.42,12.008,12.008,0,0,1,2.273-.21,5.819,5.819,0,0,1,3.57.875,3.744,3.744,0,0,1,1.12,3.115Zm-8.609-1.89H57.33v8.259A3.772,3.772,0,0,0,58.7,366.77a6.577,6.577,0,0,0,3.884.98A11.447,11.447,0,0,0,65,367.47a10.689,10.689,0,0,0,2.206-.7,7.485,7.485,0,0,1,.91,1.331,3.91,3.91,0,0,1,.42,1.889,3.962,3.962,0,0,1-1.926,3.361q-1.925,1.327-5.985,1.33-5.531,0-8.714-2.486t-3.185-8.085Zm5.25-7.14v-6.79H67.69a8.675,8.675,0,0,1,.6,1.4,5.744,5.744,0,0,1,.315,1.89,3.652,3.652,0,0,1-.84,2.625,2.871,2.871,0,0,1-2.17.875Z" transform="translate(142 448)"/>
    <path id="Caminho_12" data-name="Caminho 12" d="M75.46,361.521l-.35-6.021,18.76-2.8a7.468,7.468,0,0,0-2.03-4.62,6.907,6.907,0,0,0-5.319-1.96A7.907,7.907,0,0,0,80.57,348.6q-2.38,2.488-2.45,7.106l.21,3.641a9.377,9.377,0,0,0,3.465,6.58,11.731,11.731,0,0,0,7.175,2.1,16.527,16.527,0,0,0,5.461-.875,15.871,15.871,0,0,0,3.989-1.926A5.072,5.072,0,0,1,100,366.806a3.8,3.8,0,0,1,.595,2.065,3.884,3.884,0,0,1-1.609,3.115,11.35,11.35,0,0,1-4.34,1.993,25.16,25.16,0,0,1-6.231.7,21.837,21.837,0,0,1-9.554-2,14.806,14.806,0,0,1-6.511-5.983,22.031,22.031,0,0,1-1.015-17.43,14.792,14.792,0,0,1,8.89-8.576,18.442,18.442,0,0,1,6.3-1.084,16.889,16.889,0,0,1,8.085,1.854,13.971,13.971,0,0,1,5.459,5.146,14.282,14.282,0,0,1,2,7.56,3.791,3.791,0,0,1-1.016,2.9,4.851,4.851,0,0,1-2.835,1.154Z" transform="translate(142 448)"/>
    <path id="Caminho_13" data-name="Caminho 13" d="M131.668,364.32a9.088,9.088,0,0,1-3.64,7.665q-3.639,2.765-10.57,2.765a21.61,21.61,0,0,1-9.17-1.68q-3.57-1.68-3.569-4.479a4.485,4.485,0,0,1,.559-2.206,4.2,4.2,0,0,1,1.47-1.576,24.147,24.147,0,0,0,4.551,2.24,16.478,16.478,0,0,0,5.88.981q5.949,0,5.949-3.641a3.184,3.184,0,0,0-1.05-2.484,6.668,6.668,0,0,0-3.22-1.365l-3.99-1.05q-5.11-1.119-7.595-3.5a8.406,8.406,0,0,1-2.485-6.37,8.791,8.791,0,0,1,3.641-7.245q3.639-2.835,10.08-2.835a24.9,24.9,0,0,1,6.019.665,10.334,10.334,0,0,1,4.165,1.925,3.808,3.808,0,0,1,1.505,3.009,4.331,4.331,0,0,1-.524,2.136,3.7,3.7,0,0,1-1.365,1.435,19.6,19.6,0,0,0-2.276-1.085,18.619,18.619,0,0,0-3.255-.98,17.589,17.589,0,0,0-3.639-.385,8.9,8.9,0,0,0-4.306.875,2.724,2.724,0,0,0-1.574,2.485,2.662,2.662,0,0,0,.909,2.03,6.788,6.788,0,0,0,3.08,1.329l3.57.841q5.671,1.33,8.26,3.885a8.886,8.886,0,0,1,2.59,6.615" transform="translate(142 448)"/>
    <path id="Caminho_14" data-name="Caminho 14" d="M144.408,357.11H135.8v-25.2a10.819,10.819,0,0,1,1.646-.42,12.011,12.011,0,0,1,2.274-.21,5.821,5.821,0,0,1,3.57.875,3.747,3.747,0,0,1,1.12,3.115Zm-8.61-1.89h8.61v8.259a3.772,3.772,0,0,0,1.366,3.291,6.575,6.575,0,0,0,3.884.98,11.454,11.454,0,0,0,2.415-.28,10.659,10.659,0,0,0,2.205-.7,7.435,7.435,0,0,1,.911,1.331,3.91,3.91,0,0,1,.42,1.889,3.962,3.962,0,0,1-1.926,3.361q-1.925,1.327-5.985,1.33-5.53,0-8.714-2.486T135.8,364.11Zm5.25-7.14v-6.79h13.72a8.767,8.767,0,0,1,.6,1.4,5.744,5.744,0,0,1,.315,1.89,3.652,3.652,0,0,1-.84,2.625,2.873,2.873,0,0,1-2.17.875Z" transform="translate(142 448)"/>
    <path id="Caminho_15" data-name="Caminho 15" d="M178.707,339.4v9.03h-8.26v-9.382a13.031,13.031,0,0,1,1.785-7.174,10.425,10.425,0,0,1,4.97-4.059,19.085,19.085,0,0,1,7.245-1.3,15.969,15.969,0,0,1,6.93,1.188,3.818,3.818,0,0,1,2.38,3.572,4.106,4.106,0,0,1-.455,1.925,4.918,4.918,0,0,1-1.085,1.433,16.808,16.808,0,0,0-6.44-1.259q-3.711,0-5.39,1.4t-1.68,4.62m-8.26,6.578h8.611v27.58a8.876,8.876,0,0,1-1.611.386,14.044,14.044,0,0,1-2.31.176,5.837,5.837,0,0,1-3.534-.875,3.68,3.68,0,0,1-1.156-3.117Zm6.93,3.5v-6.718h14.07a9.065,9.065,0,0,1,.6,1.364,5.884,5.884,0,0,1,.315,2,3.492,3.492,0,0,1-.8,2.554,3.075,3.075,0,0,1-2.275.8Z" transform="translate(142 448)"/>
    <path id="Caminho_16" data-name="Caminho 16" d="M202.646,348.5v9.591h-8.609V347.8a5.128,5.128,0,0,1,.84-2.975,8.9,8.9,0,0,1,2.38-2.275,20.4,20.4,0,0,1,5.319-2.1,27.381,27.381,0,0,1,6.931-.839q6.577,0,6.58,4.06a5.441,5.441,0,0,1-.28,1.784,6.322,6.322,0,0,1-.7,1.435q-.7-.138-1.75-.244a22.256,22.256,0,0,0-2.24-.106,20.357,20.357,0,0,0-4.725.526,13.493,13.493,0,0,0-3.745,1.434m-8.609,6.72,8.609.42v17.92a9.22,9.22,0,0,1-1.609.386,14.187,14.187,0,0,1-2.311.174,5.847,5.847,0,0,1-3.535-.875,3.684,3.684,0,0,1-1.154-3.115Z" transform="translate(142 448)"/>
    <path id="Caminho_17" data-name="Caminho 17" d="M250.106,357.111a19.649,19.649,0,0,1-2.1,9.344,14.737,14.737,0,0,1-5.915,6.091,18.142,18.142,0,0,1-9,2.135,18.336,18.336,0,0,1-9.03-2.135,14.957,14.957,0,0,1-5.985-6.055,19.337,19.337,0,0,1-2.135-9.38,18.946,18.946,0,0,1,2.17-9.311,15.185,15.185,0,0,1,6.02-6.055,18.187,18.187,0,0,1,8.96-2.134,17.754,17.754,0,0,1,8.925,2.17,15.26,15.26,0,0,1,5.95,6.089,19.047,19.047,0,0,1,2.135,9.241m-17.08-10.641a7.215,7.215,0,0,0-5.985,2.8q-2.205,2.8-2.2,7.84,0,5.181,2.169,7.945a7.3,7.3,0,0,0,6.09,2.765,7.188,7.188,0,0,0,6.02-2.8q2.169-2.8,2.17-7.91,0-4.969-2.17-7.8a7.225,7.225,0,0,0-6.09-2.836" transform="translate(142 448)"/>
    <path id="Caminho_18" data-name="Caminho 18" d="M283.215,350.81v7.98h-8.609v-7a4.812,4.812,0,0,0-1.646-4.025,6.534,6.534,0,0,0-4.165-1.3,10.065,10.065,0,0,0-3.325.525,11.386,11.386,0,0,0-2.555,1.225v10.57h-8.609V347.66a5,5,0,0,1,.7-2.764,6.908,6.908,0,0,1,2.1-1.995,18.606,18.606,0,0,1,5.354-2.38,23.945,23.945,0,0,1,6.615-.91,18.216,18.216,0,0,1,6.3,1.049,11.459,11.459,0,0,1,4.69,3.081q.49.42.911.839a3.787,3.787,0,0,1,.7.98,12.229,12.229,0,0,1,1.085,2.416,8.881,8.881,0,0,1,.455,2.834m-28.909,4.621h8.609V373.56a9.132,9.132,0,0,1-1.609.386,14.187,14.187,0,0,1-2.311.174,5.845,5.845,0,0,1-3.535-.875,3.681,3.681,0,0,1-1.154-3.115Zm20.3,0h8.609V373.56a9.135,9.135,0,0,1-1.645.386,14.368,14.368,0,0,1-2.275.174,5.812,5.812,0,0,1-3.569-.875,3.741,3.741,0,0,1-1.12-3.115Zm28.839-3.92v7.279h-8.61v-7a4.972,4.972,0,0,0-1.54-4.025,6.214,6.214,0,0,0-4.13-1.3,9.2,9.2,0,0,0-3.675.771,9.675,9.675,0,0,0-3.045,2.03l-4.339-5.25a21.138,21.138,0,0,1,5.109-3.115,17.264,17.264,0,0,1,7-1.3,18.153,18.153,0,0,1,6.721,1.189,9.945,9.945,0,0,1,4.759,3.851,12.269,12.269,0,0,1,1.75,6.86m-8.61,3.92h8.61V373.56a7.311,7.311,0,0,1-1.575.386,14.358,14.358,0,0,1-2.275.174,5.985,5.985,0,0,1-3.605-.875,3.681,3.681,0,0,1-1.155-3.115Z" transform="translate(142 448)"/>
    <path id="Caminho_19" data-name="Caminho 19" d="M328.925,359.91l-8.611-.42V328.2q.56-.14,1.611-.349a11.7,11.7,0,0,1,2.309-.211,5.833,5.833,0,0,1,3.571.875,3.751,3.751,0,0,1,1.12,3.115Zm-8.611-4.83,8.611.42v18.06a9.173,9.173,0,0,1-1.611.385,14.16,14.16,0,0,1-2.31.175,5.837,5.837,0,0,1-3.534-.875,3.679,3.679,0,0,1-1.156-3.115Zm12.531,4.69-6.021-3.99,15.89-15.82a7.065,7.065,0,0,1,4.131,1.225,3.566,3.566,0,0,1,1.54,2.975,4,4,0,0,1-1.016,2.66,28.987,28.987,0,0,1-3.045,2.941Zm-5.811-2.73,6.65-3.15,16.31,15.33a6.13,6.13,0,0,1-1.4,3.64,4.194,4.194,0,0,1-3.29,1.33,5.581,5.581,0,0,1-2.941-.8,11.327,11.327,0,0,1-2.729-2.486Z" transform="translate(142 448)"/>
    <path id="Caminho_20" data-name="Caminho 20" d="M356.084,361.521l-.35-6.021,18.76-2.8a7.467,7.467,0,0,0-2.03-4.62,6.907,6.907,0,0,0-5.319-1.96,7.907,7.907,0,0,0-5.951,2.483q-2.381,2.488-2.45,7.106l.21,3.641a9.377,9.377,0,0,0,3.465,6.58,11.731,11.731,0,0,0,7.175,2.1,16.527,16.527,0,0,0,5.461-.875,15.872,15.872,0,0,0,3.989-1.926,5.072,5.072,0,0,1,1.575,1.576,3.8,3.8,0,0,1,.6,2.065,3.884,3.884,0,0,1-1.609,3.115,11.35,11.35,0,0,1-4.34,1.993,25.16,25.16,0,0,1-6.231.7,21.837,21.837,0,0,1-9.554-2,14.806,14.806,0,0,1-6.511-5.983,22.031,22.031,0,0,1-1.015-17.43,14.792,14.792,0,0,1,8.89-8.576,18.443,18.443,0,0,1,6.3-1.084,16.889,16.889,0,0,1,8.085,1.854,13.971,13.971,0,0,1,5.459,5.146,14.282,14.282,0,0,1,2,7.56,3.791,3.791,0,0,1-1.016,2.9,4.851,4.851,0,0,1-2.835,1.154Z" transform="translate(142 448)"/>
    <path id="Caminho_21" data-name="Caminho 21" d="M392.134,365.79q-1.121-2.31-2.556-5.775t-2.974-8.049q-1.541-4.586-3.151-10.115a6.187,6.187,0,0,1,1.961-1.4,6.007,6.007,0,0,1,2.59-.56,5.1,5.1,0,0,1,2.975.8,5.229,5.229,0,0,1,1.784,2.906q1.822,5.458,3.677,10.779t3.955,10.849h.278q1.33-3.078,2.66-7.244t2.555-8.644q1.224-4.48,2.065-8.541a9.356,9.356,0,0,1,1.75-.664,7.5,7.5,0,0,1,1.961-.246,5.655,5.655,0,0,1,3.044.8,2.923,2.923,0,0,1,1.3,2.7,22.28,22.28,0,0,1-.6,4.445q-.6,2.766-1.646,6.125t-2.414,7q-1.363,3.642-2.87,7.035t-3.044,6.125a51.921,51.921,0,0,1-6.581,9.625Q395.842,387,393.043,387a4.923,4.923,0,0,1-3.534-1.3,5.348,5.348,0,0,1-1.646-3.185,41.145,41.145,0,0,0,3.255-3.185q1.716-1.854,3.326-3.955a33.092,33.092,0,0,0,2.729-4.13,6.167,6.167,0,0,1-2.38-1.435,14.361,14.361,0,0,1-2.659-4.025" transform="translate(142 448)"/>
    <path id="Caminho_22" data-name="Caminho 22" d="M427.484,348.5v9.591h-8.609V347.8a5.128,5.128,0,0,1,.84-2.975,8.9,8.9,0,0,1,2.38-2.275,20.4,20.4,0,0,1,5.319-2.1,27.381,27.381,0,0,1,6.931-.839q6.578,0,6.58,4.06a5.441,5.441,0,0,1-.28,1.784,6.321,6.321,0,0,1-.7,1.435q-.7-.138-1.75-.244a22.255,22.255,0,0,0-2.24-.106,20.358,20.358,0,0,0-4.725.526,13.493,13.493,0,0,0-3.745,1.434m-8.609,6.72,8.609.42v17.92a9.221,9.221,0,0,1-1.609.386,14.187,14.187,0,0,1-2.311.174,5.847,5.847,0,0,1-3.535-.875,3.684,3.684,0,0,1-1.154-3.115Z" transform="translate(142 448)"/>
    <path id="Caminho_23" data-name="Caminho 23" d="M452.054,358.86h-8.61v-18.2q.558-.14,1.61-.316a14.284,14.284,0,0,1,2.31-.173,6,6,0,0,1,3.569.839q1.12.84,1.121,3.15Zm-8.61,2.17V355.5h8.61v5.389q0,3.713,1.924,5.321a8.105,8.105,0,0,0,5.356,1.61,14.579,14.579,0,0,0,3.78-.42,8.769,8.769,0,0,0,2.31-.91V355.5h8.61v11.69a6.176,6.176,0,0,1-.525,2.7,5.068,5.068,0,0,1-2,1.995,20.2,20.2,0,0,1-5.144,1.995,28.52,28.52,0,0,1-7.106.8,22.936,22.936,0,0,1-8.4-1.4,11.076,11.076,0,0,1-5.5-4.445,14.375,14.375,0,0,1-1.925-7.8m30.59-2.17h-8.61v-18.2q.559-.14,1.645-.316a14.471,14.471,0,0,1,2.275-.173,6.008,6.008,0,0,1,3.57.839q1.119.84,1.12,3.15Z" transform="translate(142 448)"/>
    <path id="Caminho_24" data-name="Caminho 24" d="M505.463,364.32a9.088,9.088,0,0,1-3.64,7.665q-3.639,2.765-10.57,2.765a21.61,21.61,0,0,1-9.17-1.68q-3.57-1.68-3.569-4.479a4.485,4.485,0,0,1,.559-2.206,4.2,4.2,0,0,1,1.47-1.576,24.147,24.147,0,0,0,4.551,2.24,16.478,16.478,0,0,0,5.88.981q5.949,0,5.949-3.641a3.184,3.184,0,0,0-1.05-2.484,6.668,6.668,0,0,0-3.22-1.365l-3.99-1.05q-5.11-1.119-7.6-3.5a8.406,8.406,0,0,1-2.485-6.37,8.791,8.791,0,0,1,3.641-7.245q3.639-2.835,10.08-2.835a24.9,24.9,0,0,1,6.019.665,10.334,10.334,0,0,1,4.165,1.925,3.808,3.808,0,0,1,1.505,3.009,4.331,4.331,0,0,1-.524,2.136,3.7,3.7,0,0,1-1.365,1.435,19.6,19.6,0,0,0-2.276-1.085,18.619,18.619,0,0,0-3.255-.98,17.588,17.588,0,0,0-3.639-.385,8.9,8.9,0,0,0-4.306.875,2.724,2.724,0,0,0-1.574,2.485,2.662,2.662,0,0,0,.909,2.03,6.788,6.788,0,0,0,3.08,1.329l3.57.841q5.672,1.33,8.26,3.885a8.886,8.886,0,0,1,2.59,6.615" transform="translate(142 448)"/>
    <path id="Caminho_25" data-name="Caminho 25" d="M537.383,346.54a9.744,9.744,0,0,0-7.035,2.73q-2.835,2.732-2.835,7.98,0,5.181,2.729,7.841a9.707,9.707,0,0,0,7.071,2.659,12.59,12.59,0,0,0,4.375-.665,20.473,20.473,0,0,0,3.115-1.435,5.141,5.141,0,0,1,1.644,1.505,3.707,3.707,0,0,1,.6,2.135q0,2.382-2.87,3.885a16.3,16.3,0,0,1-7.561,1.506,21.426,21.426,0,0,1-9.344-1.926,14.239,14.239,0,0,1-6.3-5.845,18.953,18.953,0,0,1-2.275-9.66,18.527,18.527,0,0,1,2.415-9.87,15.093,15.093,0,0,1,6.44-5.845,20.274,20.274,0,0,1,8.855-1.925,14.829,14.829,0,0,1,7.419,1.61q2.8,1.611,2.8,3.99a3.681,3.681,0,0,1-.56,1.961,5.1,5.1,0,0,1-1.33,1.469,17.957,17.957,0,0,0-3.15-1.469,12.414,12.414,0,0,0-4.2-.631" transform="translate(142 448)"/>
    <path id="Caminho_26" data-name="Caminho 26" d="M582.6,357.111a19.65,19.65,0,0,1-2.1,9.344,14.737,14.737,0,0,1-5.915,6.091,18.142,18.142,0,0,1-8.995,2.135,18.336,18.336,0,0,1-9.03-2.135,14.956,14.956,0,0,1-5.985-6.055,19.337,19.337,0,0,1-2.135-9.38,18.946,18.946,0,0,1,2.17-9.311,15.185,15.185,0,0,1,6.02-6.055,18.187,18.187,0,0,1,8.96-2.134,17.755,17.755,0,0,1,8.925,2.17,15.259,15.259,0,0,1,5.95,6.089,19.047,19.047,0,0,1,2.135,9.241m-17.08-10.641a7.215,7.215,0,0,0-5.985,2.8q-2.2,2.8-2.2,7.84,0,5.181,2.169,7.945a7.3,7.3,0,0,0,6.09,2.765,7.188,7.188,0,0,0,6.02-2.8q2.169-2.8,2.17-7.91,0-4.969-2.17-7.8a7.225,7.225,0,0,0-6.09-2.836" transform="translate(142 448)"/>
    <path id="Caminho_27" data-name="Caminho 27" d="M615.712,350.81v7.98H607.1v-7a4.812,4.812,0,0,0-1.646-4.025,6.534,6.534,0,0,0-4.165-1.3,10.066,10.066,0,0,0-3.325.525,11.388,11.388,0,0,0-2.555,1.225v10.57H586.8V347.66a5,5,0,0,1,.7-2.764,6.908,6.908,0,0,1,2.1-1.995,18.606,18.606,0,0,1,5.354-2.38,23.945,23.945,0,0,1,6.615-.91,18.216,18.216,0,0,1,6.3,1.049,11.46,11.46,0,0,1,4.69,3.081q.49.42.911.839a3.788,3.788,0,0,1,.7.98,12.231,12.231,0,0,1,1.085,2.416,8.882,8.882,0,0,1,.455,2.834M586.8,355.431h8.609V373.56a9.13,9.13,0,0,1-1.609.386,14.187,14.187,0,0,1-2.311.174,5.845,5.845,0,0,1-3.535-.875,3.681,3.681,0,0,1-1.154-3.115Zm20.3,0h8.609V373.56a9.135,9.135,0,0,1-1.645.386,14.368,14.368,0,0,1-2.275.174,5.812,5.812,0,0,1-3.569-.875,3.741,3.741,0,0,1-1.12-3.115Zm28.839-3.92v7.279h-8.61v-7a4.972,4.972,0,0,0-1.54-4.025,6.214,6.214,0,0,0-4.13-1.3,9.2,9.2,0,0,0-3.675.771,9.675,9.675,0,0,0-3.045,2.03l-4.339-5.25a21.137,21.137,0,0,1,5.109-3.115,17.264,17.264,0,0,1,7-1.3,18.153,18.153,0,0,1,6.721,1.189,9.945,9.945,0,0,1,4.759,3.851,12.27,12.27,0,0,1,1.75,6.86m-8.61,3.92h8.61V373.56a7.311,7.311,0,0,1-1.575.386,14.359,14.359,0,0,1-2.275.174,5.985,5.985,0,0,1-3.6-.875,3.681,3.681,0,0,1-1.155-3.115Z" transform="translate(142 448)"/>
    <path id="Caminho_28" data-name="Caminho 28" d="M652.356,373.946a17.158,17.158,0,0,1-3.745-1.646v-7.42a14.474,14.474,0,0,0,3.185,2,10.159,10.159,0,0,0,4.375.875,8.66,8.66,0,0,0,6.651-2.625q2.448-2.625,2.449-8.156a13.664,13.664,0,0,0-1.154-6.125,7.349,7.349,0,0,0-3.186-3.324,9.759,9.759,0,0,0-4.55-1.051,11.324,11.324,0,0,0-5.95,1.541V370.13h-8.609V347.171a5.1,5.1,0,0,1,.63-2.66,6.144,6.144,0,0,1,2.1-1.961,22.372,22.372,0,0,1,5.04-2.064,24.33,24.33,0,0,1,6.79-.875,22.067,22.067,0,0,1,9.1,1.785,13.565,13.565,0,0,1,6.265,5.635,19.35,19.35,0,0,1,2.275,9.939,20.31,20.31,0,0,1-2.135,9.8,14.235,14.235,0,0,1-5.88,5.914,17.959,17.959,0,0,1-8.575,2,16.48,16.48,0,0,1-5.075-.735m-1.925,12.283a9.03,9.03,0,0,1-1.609.387,14.31,14.31,0,0,1-2.311.174,5.668,5.668,0,0,1-3.535-.91,3.789,3.789,0,0,1-1.154-3.15V367.681l8.609.07Z" transform="translate(142 448)"/>
    <path id="Caminho_29" data-name="Caminho 29" d="M691.031,339.61q6.859,0,10.92,2.905t4.06,9.135v16.1a4.07,4.07,0,0,1-.8,2.66,8.052,8.052,0,0,1-2.065,1.75,19.3,19.3,0,0,1-4.97,1.855,28.7,28.7,0,0,1-6.79.735q-7,0-10.99-2.694a9.04,9.04,0,0,1-3.99-8.016,8.821,8.821,0,0,1,2.975-7.175q2.975-2.482,8.645-3.045l9.52-.979V351.58a4.492,4.492,0,0,0-1.925-4.059,9.876,9.876,0,0,0-5.425-1.26,20.324,20.324,0,0,0-5.32.7,26.626,26.626,0,0,0-4.62,1.68,5.288,5.288,0,0,1-1.26-1.539,4.035,4.035,0,0,1-.56-2.031q0-2.52,2.8-3.71a17.465,17.465,0,0,1,4.585-1.33,32.961,32.961,0,0,1,5.215-.42m.35,28.561a15.612,15.612,0,0,0,3.78-.421,8.79,8.79,0,0,0,2.45-.909V358.86l-6.93.7a9.047,9.047,0,0,0-4.375,1.225,3.361,3.361,0,0,0-1.505,2.976,3.792,3.792,0,0,0,1.61,3.219,8.373,8.373,0,0,0,4.97,1.191" transform="translate(142 448)"/>
    <path id="Caminho_30" data-name="Caminho 30" d="M742.27,352.071v6.79h-8.61v-6.44a5.506,5.506,0,0,0-1.75-4.515,7.174,7.174,0,0,0-4.69-1.436,13.294,13.294,0,0,0-3.885.525,17.7,17.7,0,0,0-3.045,1.225v10.641h-8.609v-11.2a5,5,0,0,1,.7-2.764,6.915,6.915,0,0,1,2.1-1.995,19.293,19.293,0,0,1,5.425-2.345,26.931,26.931,0,0,1,7.385-.945q7.07,0,11.025,3.15t3.955,9.31m-30.589,3.36h8.609V373.56a9.131,9.131,0,0,1-1.609.386,14.2,14.2,0,0,1-2.311.174,5.843,5.843,0,0,1-3.535-.875,3.681,3.681,0,0,1-1.154-3.115Zm21.979,0h8.61V373.56a7.311,7.311,0,0,1-1.575.386,14.368,14.368,0,0,1-2.275.174,5.985,5.985,0,0,1-3.6-.875,3.681,3.681,0,0,1-1.155-3.115Z" transform="translate(142 448)"/>
    <path id="Caminho_31" data-name="Caminho 31" d="M753.19,365.79q-1.121-2.31-2.555-5.775t-2.974-8.049q-1.542-4.586-3.151-10.115a6.183,6.183,0,0,1,1.96-1.4,6.01,6.01,0,0,1,2.59-.56,5.1,5.1,0,0,1,2.976.8,5.239,5.239,0,0,1,1.784,2.906q1.821,5.458,3.676,10.779t3.955,10.849h.279q1.329-3.078,2.66-7.244t2.555-8.644q1.224-4.48,2.065-8.541a9.356,9.356,0,0,1,1.75-.664,7.484,7.484,0,0,1,1.96-.246,5.658,5.658,0,0,1,3.045.8,2.925,2.925,0,0,1,1.295,2.7,22.279,22.279,0,0,1-.595,4.445q-.6,2.766-1.645,6.125t-2.415,7q-1.364,3.642-2.869,7.035t-3.045,6.125a51.927,51.927,0,0,1-6.58,9.625Q756.9,387,754.1,387a4.927,4.927,0,0,1-3.535-1.3,5.347,5.347,0,0,1-1.645-3.185,41.139,41.139,0,0,0,3.255-3.185q1.715-1.854,3.326-3.955a33.315,33.315,0,0,0,2.729-4.13,6.167,6.167,0,0,1-2.38-1.435,14.36,14.36,0,0,1-2.66-4.025" transform="translate(142 448)"/>
  </g>
</svg>
